<svg width="1600" height="900" viewBox="0 0 1600 900" xmlns="http://www.w3.org/2000/svg">
  <defs>
    <radialGradient id="rosePulse2" cx="50%" cy="50%" r="60%">
      <stop offset="0%" stop-color="#a33b5c" stop-opacity="0.35"/>
      <stop offset="100%" stop-color="#050507" stop-opacity="0"/>
    </radialGradient>
    <linearGradient id="goldGrad2" x1="0%" y1="0%" x2="100%" y2="100%">
      <stop offset="0%" stop-color="#d4a853"/>
      <stop offset="100%" stop-color="#b8860b"/>
    </linearGradient>
  </defs>
  
  <!-- Background -->
  <rect width="1600" height="900" fill="#050507"/>
  <rect width="1600" height="900" fill="url(#rosePulse2)"/>
  
  <!-- Heartbeat Line -->
  <g transform="translate(800, 340)">
    <ellipse cx="0" cy="0" rx="200" ry="100" fill="#a33b5c" fill-opacity="0.08"/>
    <path d="M-280,0 L-200,0 L-180,-80 L-160,100 L-140,-60 L-120,40 L-100,0 L-60,0 L-40,-40 L-20,50 L0,-30 L20,20 L40,0 L80,0 L100,-20 L120,15 L140,-10 L160,5 L180,0 L280,0" 
          fill="none" stroke="#a33b5c" stroke-width="4" stroke-linecap="round" stroke-linejoin="round"/>
    <circle cx="230" cy="0" r="30" fill="#a33b5c" fill-opacity="0.2"/>
    <circle cx="230" cy="0" r="6" fill="#a33b5c"/>
    <path d="M0,-80 C0,-100 -16,-100 -16,-80 C-16,-64 0,-48 0,-48 C0,-48 16,-64 16,-80 C16,-100 0,-100 0,-80" fill="#a33b5c" fill-opacity="0.4"/>
  </g>
  
  <!-- 4 Sessions Badge -->
  <rect x="60" y="60" width="220" height="50" rx="25" fill="rgba(184,134,11,0.2)" stroke="rgba(184,134,11,0.5)" stroke-width="1"/>
  <text x="170" y="95" font-family="Outfit, sans-serif" font-size="20" font-weight="600" fill="#d4a853" text-anchor="middle" letter-spacing="0.1em">4 SESSIONS</text>
  
  <!-- Save badge -->
  <rect x="300" y="60" width="160" height="50" rx="25" fill="url(#goldGrad2)"/>
  <text x="380" y="95" font-family="Outfit, sans-serif" font-size="18" font-weight="600" fill="#050507" text-anchor="middle" letter-spacing="0.08em">SAVE $41</text>
  
  <!-- Price -->
  <text x="1480" y="100" font-family="Cormorant Garamond, Georgia, serif" font-size="48" font-weight="700" fill="#d4a853" text-anchor="middle">$227</text>
  
  <!-- Headline -->
  <text x="800" y="620" font-family="Cormorant Garamond, Georgia, serif" font-size="96" font-weight="600" font-style="italic" fill="#ece8e1" text-anchor="middle">BPD Coaching</text>
  
  <!-- Subtext -->
  <text x="800" y="700" font-family="Outfit, sans-serif" font-size="32" font-weight="400" fill="#9a958c" text-anchor="middle" letter-spacing="0.12em">4-SESSION BUNDLE</text>
  
  <line x1="600" y1="780" x2="1000" y2="780" stroke="rgba(184,134,11,0.3)" stroke-width="1"/>
</svg>
